<svg width="25" height="24" viewBox="0 0 25 24" fill="none" xmlns="http://www.w3.org/2000/svg">
<path d="M4.83507 19.166C6.09661 18.2964 7.35167 17.6223 8.60024 17.1438C9.84883 16.6652 11.2043 16.4259 12.6666 16.4259C14.129 16.4259 15.4877 16.6652 16.7428 17.1438C17.9978 17.6223 19.2561 18.2964 20.5177 19.166C21.4359 18.102 22.1181 16.9786 22.5642 15.7957C23.0104 14.6128 23.2335 13.3476 23.2335 12C23.2335 9.02025 22.2173 6.51416 20.1849 4.48176C18.1525 2.44937 15.6464 1.43318 12.6666 1.43318C9.68689 1.43318 7.18081 2.44937 5.1484 4.48176C3.11602 6.51416 2.09982 9.02025 2.09982 12C2.09982 13.3476 2.32614 14.6128 2.77877 15.7957C3.23141 16.9786 3.91684 18.102 4.83507 19.166ZM12.6598 12.7166C11.5243 12.7166 10.5691 12.3269 9.79418 11.5474C9.01927 10.7679 8.63182 9.81044 8.63182 8.67492C8.63182 7.53942 9.02156 6.58422 9.80103 5.80931C10.5805 5.03442 11.538 4.64698 12.6735 4.64698C13.809 4.64698 14.7642 5.03671 15.5391 5.81616C16.314 6.59562 16.7015 7.5531 16.7015 8.68862C16.7015 9.82414 16.3117 10.7793 15.5322 11.5542C14.7528 12.3291 13.7953 12.7166 12.6598 12.7166ZM12.6814 24C11.0181 24 9.45769 23.6866 8.00008 23.0599C6.5425 22.4332 5.26922 21.5745 4.18025 20.4838C3.0913 19.3931 2.23347 18.1223 1.60675 16.6714C0.98001 15.2204 0.666641 13.6625 0.666641 11.9977C0.666641 10.3328 0.98001 8.77571 1.60675 7.32633C2.23347 5.87694 3.09216 4.6069 4.18284 3.5162C5.27354 2.42552 6.54435 1.56683 7.99528 0.940108C9.44623 0.31337 11.0041 0 12.669 0C14.3338 0 15.8909 0.31337 17.3403 0.940108C18.7897 1.56683 20.0597 2.42552 21.1504 3.5162C22.2411 4.6069 23.0998 5.87728 23.7265 7.32735C24.3533 8.77741 24.6666 10.33 24.6666 11.9852C24.6666 13.6485 24.3533 15.209 23.7265 16.6666C23.0998 18.1241 22.2411 19.3974 21.1504 20.4864C20.0597 21.5753 18.7894 22.4332 17.3393 23.0599C15.8892 23.6866 14.3366 24 12.6814 24ZM12.6666 22.5668C13.8407 22.5668 14.9986 22.3802 16.1403 22.0069C17.282 21.6336 18.3574 21.03 19.3663 20.196C18.3574 19.4543 17.2889 18.8793 16.161 18.4712C15.033 18.0632 13.8683 17.8591 12.6666 17.8591C11.465 17.8591 10.2982 18.0611 9.16623 18.4652C8.03423 18.8692 6.97188 19.4461 5.97918 20.196C6.97998 21.03 8.05124 21.6336 9.19295 22.0069C10.3347 22.3802 11.4926 22.5668 12.6666 22.5668ZM12.6683 11.2834C13.4235 11.2834 14.0456 11.0383 14.5347 10.5481C15.0237 10.0579 15.2683 9.43524 15.2683 8.6801C15.2683 7.92494 15.0232 7.30282 14.533 6.81374C14.0428 6.32467 13.4201 6.08013 12.6649 6.08013C11.9098 6.08013 11.2877 6.32524 10.7986 6.81545C10.3095 7.30564 10.065 7.92832 10.065 8.68348C10.065 9.43861 10.3101 10.0607 10.8003 10.5498C11.2905 11.0389 11.9132 11.2834 12.6683 11.2834Z" fill="#595959"/>
</svg>
