<svg width="24" height="24" viewBox="0 0 24 24" fill="none" xmlns="http://www.w3.org/2000/svg">
<path d="M12 24L10.9967 22.9888C8.82674 20.7879 7.03445 18.8934 5.61985 17.3054C4.20526 15.7173 3.08056 14.3079 2.24576 13.0771C1.41094 11.8462 0.827934 10.7348 0.496755 9.74266C0.165575 8.75053 -1.52588e-05 7.75578 -1.52588e-05 6.75841C-1.52588e-05 4.8403 0.584197 3.23437 1.75262 1.94064C2.92105 0.64688 4.36517 0 6.08501 0C7.26072 0 8.351 0.328109 9.35584 0.984323C10.3607 1.64054 11.2421 2.59438 12 3.84586C12.8518 2.54241 13.7658 1.57556 14.742 0.945338C15.7181 0.315113 16.7758 0 17.915 0C19.6348 0 21.0789 0.64688 22.2474 1.94064C23.4158 3.23437 24 4.8403 24 6.75841C24 7.75578 23.8344 8.75053 23.5032 9.74266C23.172 10.7348 22.5895 11.8453 21.7556 13.0742C20.9217 14.3031 19.797 15.7125 18.3815 17.3025C16.966 18.8924 15.1732 20.7879 13.0032 22.9888L12 24ZM12 21.8969C14.0993 19.7693 15.8269 17.9456 17.1828 16.426C18.5386 14.9064 19.6158 13.5768 20.4143 12.4373C21.2129 11.2977 21.7713 10.2846 22.0895 9.39793C22.4077 8.51125 22.5668 7.63309 22.5668 6.76344C22.5668 5.26658 22.1287 4.02957 21.2526 3.05243C20.3765 2.07529 19.2663 1.58672 17.9221 1.58672C16.8454 1.58672 15.8557 1.94261 14.9528 2.65439C14.0498 3.36619 13.2615 4.41774 12.5878 5.80905H11.3927C10.7239 4.43208 9.93807 3.38412 9.03531 2.66516C8.13255 1.9462 7.14675 1.58672 6.07791 1.58672C4.74173 1.58672 3.63357 2.07529 2.75342 3.05243C1.87325 4.02957 1.43317 5.27006 1.43317 6.77389C1.43317 7.64216 1.59293 8.52201 1.91244 9.41342C2.23196 10.3048 2.78823 11.3232 3.58127 12.4685C4.3743 13.6138 5.45544 14.9422 6.82469 16.4536C8.19391 17.9651 9.91901 19.7795 12 21.8969Z" fill="#595959"/>
</svg>
