<svg width="16" height="16" viewBox="0 0 16 16" fill="none" xmlns="http://www.w3.org/2000/svg">
<path fill-rule="evenodd" clip-rule="evenodd" d="M1.33334 8C1.33334 4.31999 4.32001 1.33333 8.00001 1.33333C11.68 1.33333 14.6667 4.31999 14.6667 8C14.6667 11.68 11.68 14.6667 8.00001 14.6667C4.32001 14.6667 1.33334 11.68 1.33334 8ZM2.66668 7.99999C2.66668 10.94 5.06001 13.3333 8.00001 13.3333C10.94 13.3333 13.3333 10.94 13.3333 7.99999C13.3333 5.05999 10.94 2.66666 8.00001 2.66666C5.06001 2.66666 2.66668 5.05999 2.66668 7.99999ZM8.66668 10.6667V12H7.33334V10.6667H8.66668ZM5.45334 5.88666C5.82001 4.67333 7.03334 3.82666 8.40668 4.02666C9.56668 4.19999 10.48 5.17999 10.64 6.33999C10.7921 7.41569 10.1972 7.93472 9.62298 8.43569C9.51748 8.52773 9.41268 8.61916 9.31334 8.71333C9.23334 8.78666 9.16001 8.85999 9.09334 8.93999C9.09001 8.94333 9.08668 8.94833 9.08334 8.95333C9.08001 8.95833 9.07668 8.96333 9.07334 8.96666C9.00668 9.04666 8.94001 9.13333 8.88668 9.22666C8.88001 9.23666 8.87501 9.24666 8.87001 9.25666C8.86501 9.26666 8.86001 9.27666 8.85334 9.28666C8.74001 9.48666 8.66668 9.71999 8.66668 10H7.33334C7.33334 9.66666 7.38668 9.39333 7.46668 9.16666C7.4696 9.15789 7.47124 9.1504 7.47272 9.14364C7.47462 9.13497 7.47627 9.12748 7.48001 9.12C7.48334 9.10999 7.48834 9.10166 7.49334 9.09333C7.49834 9.085 7.50334 9.07666 7.50668 9.06666C7.55334 8.94666 7.61334 8.83333 7.67334 8.73333C7.67668 8.72666 7.68001 8.72166 7.68334 8.71666C7.68668 8.71166 7.69001 8.70666 7.69334 8.7C7.69334 8.69666 7.69501 8.69499 7.69668 8.69333C7.69834 8.69166 7.70001 8.68999 7.70001 8.68666C7.92706 8.34471 8.23157 8.11052 8.51635 7.89151C8.92557 7.5768 9.29403 7.29342 9.33334 6.76666C9.38668 6.11999 8.92001 5.49999 8.28668 5.36666C7.60001 5.21999 6.96668 5.62666 6.75334 6.21999C6.66001 6.47333 6.44001 6.66666 6.16668 6.66666H6.03334C5.62668 6.66666 5.33334 6.27333 5.45334 5.88666Z" fill="#595959"/>
</svg>
