<svg width="25" height="24" viewBox="0 0 25 24" fill="none" xmlns="http://www.w3.org/2000/svg">
<path d="M22.8622 24L14.0944 15.2322C13.3964 15.8085 12.5937 16.2595 11.6863 16.5852C10.779 16.9109 9.84026 17.0738 8.87024 17.0738C6.48428 17.0738 4.46497 16.2477 2.81232 14.5954C1.15967 12.9432 0.333344 10.9244 0.333344 8.53909C0.333344 6.15374 1.15946 4.13421 2.81169 2.48051C4.46393 0.826837 6.48272 0 8.86807 0C11.2534 0 13.2729 0.826328 14.9266 2.47898C16.5803 4.13163 17.4072 6.15094 17.4072 8.53689C17.4072 9.53376 17.2398 10.4859 16.9051 11.3933C16.5705 12.3007 16.1239 13.0899 15.5655 13.7611L24.3333 22.5289L22.8622 24ZM8.87024 14.9799C10.6689 14.9799 12.1924 14.3557 13.4407 13.1074C14.6891 11.8591 15.3132 10.3356 15.3132 8.53689C15.3132 6.73822 14.6891 5.21472 13.4407 3.96639C12.1924 2.71806 10.6689 2.0939 8.87024 2.0939C7.07157 2.0939 5.54807 2.71806 4.29974 3.96639C3.05143 5.21472 2.42728 6.73822 2.42728 8.53689C2.42728 10.3356 3.05143 11.8591 4.29974 13.1074C5.54807 14.3557 7.07157 14.9799 8.87024 14.9799Z" fill="#595959"/>
</svg>
