<svg width="14" height="14" viewBox="0 0 14 14" fill="none" xmlns="http://www.w3.org/2000/svg">
<path fill-rule="evenodd" clip-rule="evenodd" d="M1.16666 7.00002C1.16666 3.78002 3.77416 1.16669 6.99416 1.16669C10.22 1.16669 12.8333 3.78002 12.8333 7.00002C12.8333 10.22 10.22 12.8334 6.99416 12.8334C3.77416 12.8334 1.16666 10.22 1.16666 7.00002ZM9.91666 5.54169C9.91666 6.02585 9.52583 6.41669 9.04166 6.41669C8.5575 6.41669 8.16666 6.02585 8.16666 5.54169C8.16666 5.05752 8.5575 4.66669 9.04166 4.66669C9.52583 4.66669 9.91666 5.05752 9.91666 5.54169ZM4.95833 6.41669C5.4425 6.41669 5.83333 6.02585 5.83333 5.54169C5.83333 5.05752 5.4425 4.66669 4.95833 4.66669C4.47416 4.66669 4.08333 5.05752 4.08333 5.54169C4.08333 6.02585 4.47416 6.41669 4.95833 6.41669ZM9.77083 8.60419C9.21666 9.56085 8.18416 10.2084 7 10.2084C5.81583 10.2084 4.78333 9.56085 4.22916 8.60419C4.11833 8.41169 4.26416 8.16669 4.48583 8.16669H9.51416C9.74166 8.16669 9.88166 8.41169 9.77083 8.60419Z" fill="white"/>
</svg>
