<svg width="80" height="16" viewBox="0 0 80 16" fill="none" xmlns="http://www.w3.org/2000/svg">
<path d="M7.99999 11.6797L10.7667 13.3531C11.2733 13.6597 11.8933 13.2064 11.76 12.6331L11.0267 9.4864L13.4733 7.3664C13.92 6.97973 13.68 6.2464 13.0933 6.19973L9.87332 5.9264L8.61332 2.95307C8.38665 2.41307 7.61332 2.41307 7.38665 2.95307L6.12665 5.91973L2.90665 6.19307C2.31999 6.23973 2.07999 6.97307 2.52665 7.35973L4.97332 9.47973L4.23999 12.6264C4.10665 13.1997 4.72665 13.6531 5.23332 13.3464L7.99999 11.6797Z" fill="#222222"/>
<path d="M24 11.6797L26.7667 13.3531C27.2733 13.6597 27.8933 13.2064 27.76 12.6331L27.0267 9.4864L29.4733 7.3664C29.92 6.97973 29.68 6.2464 29.0933 6.19973L25.8733 5.9264L24.6133 2.95307C24.3867 2.41307 23.6133 2.41307 23.3867 2.95307L22.1267 5.91973L18.9067 6.19307C18.32 6.23973 18.08 6.97307 18.5267 7.35973L20.9733 9.47973L20.24 12.6264C20.1067 13.1997 20.7267 13.6531 21.2333 13.3464L24 11.6797Z" fill="#222222"/>
<path d="M40 11.6797L42.7667 13.3531C43.2733 13.6597 43.8933 13.2064 43.76 12.6331L43.0267 9.4864L45.4733 7.3664C45.92 6.97973 45.68 6.2464 45.0933 6.19973L41.8733 5.9264L40.6133 2.95307C40.3867 2.41307 39.6133 2.41307 39.3867 2.95307L38.1267 5.91973L34.9067 6.19307C34.32 6.23973 34.08 6.97307 34.5267 7.35973L36.9733 9.47973L36.24 12.6264C36.1067 13.1997 36.7267 13.6531 37.2333 13.3464L40 11.6797Z" fill="#222222"/>
<path d="M56 11.6797L58.7667 13.3531C59.2733 13.6597 59.8933 13.2064 59.76 12.6331L59.0267 9.4864L61.4733 7.3664C61.92 6.97973 61.68 6.2464 61.0933 6.19973L57.8733 5.9264L56.6133 2.95307C56.3867 2.41307 55.6133 2.41307 55.3867 2.95307L54.1267 5.91973L50.9067 6.19307C50.32 6.23973 50.08 6.97307 50.5267 7.35973L52.9733 9.47973L52.24 12.6264C52.1067 13.1997 52.7267 13.6531 53.2333 13.3464L56 11.6797Z" fill="#222222"/>
<path d="M72 11.6797L74.7667 13.3531C75.2733 13.6597 75.8933 13.2064 75.76 12.6331L75.0267 9.4864L77.4733 7.3664C77.92 6.97973 77.68 6.2464 77.0933 6.19973L73.8733 5.9264L72.6133 2.95307C72.3867 2.41307 71.6133 2.41307 71.3867 2.95307L70.1267 5.91973L66.9067 6.19307C66.32 6.23973 66.08 6.97307 66.5267 7.35973L68.9733 9.47973L68.24 12.6264C68.1067 13.1997 68.7267 13.6531 69.2333 13.3464L72 11.6797Z" fill="#222222"/>
</svg>
